{
  "accessors": [
    {
      "bufferView": 1,
      "componentType": 5126,
      "count": 386,
      "max": [
        84.0,
        -0.0,
        9.470999717712402
      ],
      "min": [
        -80.07099914550781,
        -85.48200225830078,
        -71.0
      ],
      "type": "VEC3"
    },
    {
      "bufferView": 1,
      "byteOffset": 4632,
      "componentType": 5126,
      "count": 386,
      "max": [
        1.0,
        1.0,
        1.0
      ],
      "min": [
        -1.0,
        -1.0,
        -1.0
      ],
      "type": "VEC3"
    },
    {
      "bufferView": 0,
      "componentType": 5125,
      "count": 1044,
      "type": "SCALAR"
    },
    {
      "bufferView": 1,
      "byteOffset": 9264,
      "componentType": 5126,
      "count": 4005,
      "max": [
        39.880001068115234,
        1.378999948501587,
        66.0
      ],
      "min": [
        -34.571998596191406,
        -147.5260009765625,
        -0.18000000715255737
      ],
      "type": "VEC3"
    },
    {
      "bufferView": 1,
      "byteOffset": 57324,
      "componentType": 5126,
      "count": 4005,
      "max": [
        0.9998477101325989,
        1.0,
        1.0
      ],
      "min": [
        -0.9999873638153076,
        -1.0,
        -0.9999817609786987
      ],
      "type": "VEC3"
    },
    {
      "bufferView": 0,
      "byteOffset": 4176,
      "componentType": 5125,
      "count": 19470,
      "type": "SCALAR"
    },
    {
      "bufferView": 1,
      "byteOffset": 105384,
      "componentType": 5126,
      "count": 1705,
      "max": [
        21.0,
        -47.0,
        -29.0
      ],
      "min": [
        -11.0,
        -48.0,
        -49.0
      ],
      "type": "VEC3"
    },
    {
      "bufferView": 1,
      "byteOffset": 125844,
      "componentType": 5126,
      "count": 1705,
      "max": [
        1.0,
        1.0,
        1.0
      ],
      "min": [
        -1.0,
        -1.0,
        -1.0
      ],
      "type": "VEC3"
    },
    {
      "bufferView": 0,
      "byteOffset": 82056,
      "componentType": 5125,
      "count": 5232,
      "type": "SCALAR"
    },
    {
      "bufferView": 1,
      "byteOffset": 146304,
      "componentType": 5126,
      "count": 8004,
      "max": [
        79.28600311279297,
        -47.0,
        -52.4010009765625
      ],
      "min": [
        60.3129997253418,
        -60.0,
        -67.31700134277344
      ],
      "type": "VEC3"
    },
    {
      "bufferView": 1,
      "byteOffset": 242352,
      "componentType": 5126,
      "count": 8004,
      "max": [
        0.9982070326805115,
        1.0,
        0.9998540282249451
      ],
      "min": [
        -0.999849259853363,
        -1.0,
        -0.999849259853363
      ],
      "type": "VEC3"
    },
    {
      "bufferView": 0,
      "byteOffset": 102984,
      "componentType": 5125,
      "count": 36978,
      "type": "SCALAR"
    },
    {
      "bufferView": 1,
      "byteOffset": 338400,
      "componentType": 5126,
      "count": 1974,
      "max": [
        39.880001068115234,
        -24.816999435424805,
        54.66809844970703
      ],
      "min": [
        -34.571998596191406,
        -84.10399627685547,
        6.695799827575684
      ],
      "type": "VEC3"
    },
    {
      "bufferView": 1,
      "byteOffset": 362088,
      "componentType": 5126,
      "count": 1974,
      "max": [
        1.0,
        1.0,
        1.0
      ],
      "min": [
        -1.0,
        -0.9995228052139282,
        -1.0
      ],
      "type": "VEC3"
    },
    {
      "bufferView": 0,
      "byteOffset": 250896,
      "componentType": 5125,
      "count": 8667,
      "type": "SCALAR"
    },
    {
      "bufferView": 1,
      "byteOffset": 385776,
      "componentType": 5126,
      "count": 1276,
      "max": [
        16.44099998474121,
        -49.6349983215332,
        12.852999687194824
      ],
      "min": [
        -12.51200008392334,
        -77.20999908447266,
        9.470999717712402
      ],
      "type": "VEC3"
    },
    {
      "bufferView": 1,
      "byteOffset": 401088,
      "componentType": 5126,
      "count": 1276,
      "max": [
        0.9999761581420898,
        0.9999050498008728,
        1.0
      ],
      "min": [
        -0.9996337890625,
        -0.9999938607215881,
        -1.0
      ],
      "type": "VEC3"
    },
    {
      "bufferView": 0,
      "byteOffset": 285564,
      "componentType": 5125,
      "count": 3711,
      "type": "SCALAR"
    },
    {
      "bufferView": 1,
      "byteOffset": 416400,
      "componentType": 5126,
      "count": 2078,
      "max": [
        81.0,
        -47.0,
        15.489999771118164
      ],
      "min": [
        26.485000610351563,
        -100.55799865722656,
        -27.0
      ],
      "type": "VEC3"
    },
    {
      "bufferView": 1,
      "byteOffset": 441336,
      "componentType": 5126,
      "count": 2078,
      "max": [
        1.0,
        1.0,
        1.0
      ],
      "min": [
        -1.0,
        -1.0,
        -1.0
      ],
      "type": "VEC3"
    },
    {
      "bufferView": 0,
      "byteOffset": 300408,
      "componentType": 5125,
      "count": 11880,
      "type": "SCALAR"
    },
    {
      "bufferView": 1,
      "byteOffset": 466272,
      "componentType": 5126,
      "count": 7780,
      "max": [
        -54.0,
        -47.0,
        -10.0
      ],
      "min": [
        -72.0,
        -60.0,
        -25.0
      ],
      "type": "VEC3"
    },
    {
      "bufferView": 1,
      "byteOffset": 559632,
      "componentType": 5126,
      "count": 7780,
      "max": [
        1.0,
        1.0,
        1.0
      ],
      "min": [
        -1.0,
        -1.0,
        -1.0
      ],
      "type": "VEC3"
    },
    {
      "bufferView": 0,
      "byteOffset": 347928,
      "componentType": 5125,
      "count": 36372,
      "type": "SCALAR"
    },
    {
      "bufferView": 1,
      "byteOffset": 652992,
      "componentType": 5126,
      "count": 82,
      "max": [
        -54.0,
        -47.0,
        -46.979000091552734
      ],
      "min": [
        -73.0,
        -57.0,
        -67.0
      ],
      "type": "VEC3"
    },
    {
      "bufferView": 1,
      "byteOffset": 653976,
      "componentType": 5126,
      "count": 82,
      "max": [
        1.0,
        1.0,
        0.8944271802902222
      ],
      "min": [
        -1.0,
        -0.9999999403953552,
        -0.8944271802902222
      ],
      "type": "VEC3"
    },
    {
      "bufferView": 0,
      "byteOffset": 493416,
      "componentType": 5125,
      "count": 132,
      "type": "SCALAR"
    },
    {
      "bufferView": 1,
      "byteOffset": 654960,
      "componentType": 5126,
      "count": 42,
      "max": [
        6.0,
        -47.0,
        -29.0
      ],
      "min": [
        4.0,
        -49.0,
        -49.0
      ],
      "type": "VEC3"
    },
    {
      "bufferView": 1,
      "byteOffset": 655464,
      "componentType": 5126,
      "count": 42,
      "max": [
        1.0,
        1.0,
        1.0
      ],
      "min": [
        -1.0,
        -1.0,
        -1.0
      ],
      "type": "VEC3"
    },
    {
      "bufferView": 0,
      "byteOffset": 493944,
      "componentType": 5125,
      "count": 96,
      "type": "SCALAR"
    },
    {
      "bufferView": 1,
      "byteOffset": 655968,
      "componentType": 5126,
      "count": 4819,
      "max": [
        20.32699966430664,
        -48.0,
        -31.43600082397461
      ],
      "min": [
        -10.326000213623047,
        -49.4010009765625,
        -46.893001556396484
      ],
      "type": "VEC3"
    },
    {
      "bufferView": 1,
      "byteOffset": 713796,
      "componentType": 5126,
      "count": 4819,
      "max": [
        1.0,
        4.423292193678208e-05,
        1.0
      ],
      "min": [
        -1.0,
        -1.0,
        -1.0
      ],
      "type": "VEC3"
    },
    {
      "bufferView": 0,
      "byteOffset": 494328,
      "componentType": 5125,
      "count": 12276,
      "type": "SCALAR"
    }
  ],
  "asset": {
    "extras": {
      "author": "TroyDCD (https://sketchfab.com/TroyDCD)",
      "license": "CC-BY-4.0 (http://creativecommons.org/licenses/by/4.0/)",
      "source": "https://sketchfab.com/3d-models/final-assignment-ruby-wizard-f80e52c5f08d4e8ebc714fde1ab548df",
      "title": "Final Assignment Ruby Wizard"
    },
    "generator": "Sketchfab-12.12.0",
    "version": "2.0"
  },
  "bufferViews": [
    {
      "buffer": 0,
      "byteLength": 543432,
      "name": "floatBufferViews",
      "target": 34963
    },
    {
      "buffer": 0,
      "byteLength": 771624,
      "byteOffset": 543432,
      "byteStride": 12,
      "name": "floatBufferViews",
      "target": 34962
    }
  ],
  "buffers": [
    {
      "byteLength": 1315056,
      "uri": "scene.bin"
    }
  ],
  "materials": [
    {
      "doubleSided": true,
      "name": "color_11107152",
      "pbrMetallicRoughness": {
        "baseColorFactor": [
          0.662745,
          0.482353,
          0.313726,
          1.0
        ],
        "metallicFactor": 0.0
      }
    },
    {
      "doubleSided": true,
      "name": "color_12387860",
      "pbrMetallicRoughness": {
        "baseColorFactor": [
          0.741176,
          0.0235294,
          0.0784314,
          1.0
        ],
        "metallicFactor": 0.0
      }
    },
    {
      "doubleSided": true,
      "name": "color_14789940",
      "pbrMetallicRoughness": {
        "baseColorFactor": [
          0.882353,
          0.678431,
          0.203922,
          1.0
        ],
        "metallicFactor": 0.0
      }
    },
    {
      "doubleSided": true,
      "name": "color_15277357",
      "pbrMetallicRoughness": {
        "baseColorFactor": [
          0.913725,
          0.113725,
          0.176471,
          1.0
        ],
        "metallicFactor": 0.0
      }
    },
    {
      "doubleSided": true,
      "name": "color_16112312",
      "pbrMetallicRoughness": {
        "baseColorFactor": [
          0.960784,
          0.854902,
          0.721569,
          1.0
        ],
        "metallicFactor": 0.0
      }
    },
    {
      "doubleSided": true,
      "name": "color_16448250",
      "pbrMetallicRoughness": {
        "baseColorFactor": [
          0.980392,
          0.980392,
          0.980392,
          1.0
        ],
        "metallicFactor": 0.0
      }
    },
    {
      "doubleSided": true,
      "name": "color_16768282",
      "pbrMetallicRoughness": {
        "baseColorFactor": [
          1.0,
          0.866667,
          0.101961,
          1.0
        ],
        "metallicFactor": 0.0
      }
    },
    {
      "doubleSided": true,
      "name": "color_30377",
      "pbrMetallicRoughness": {
        "baseColorFactor": [
          0.0,
          0.462745,
          0.662745,
          1.0
        ],
        "metallicFactor": 0.0
      }
    },
    {
      "doubleSided": true,
      "name": "color_4634441",
      "pbrMetallicRoughness": {
        "baseColorFactor": [
          0.27451,
          0.717647,
          0.286275,
          1.0
        ],
        "metallicFactor": 0.0
      }
    },
    {
      "doubleSided": true,
      "name": "color_6306067",
      "pbrMetallicRoughness": {
        "baseColorFactor": [
          0.376471,
          0.223529,
          0.0745098,
          1.0
        ],
        "metallicFactor": 0.0
      }
    },
    {
      "doubleSided": true,
      "name": "color_8273816",
      "pbrMetallicRoughness": {
        "baseColorFactor": [
          0.494118,
          0.247059,
          0.596078,
          1.0
        ],
        "metallicFactor": 0.0
      }
    }
  ],
  "meshes": [
    {
      "name": "Object_0",
      "primitives": [
        {
          "attributes": {
            "NORMAL": 1,
            "POSITION": 0
          },
          "indices": 2,
          "material": 0,
          "mode": 4
        }
      ]
    },
    {
      "name": "Object_1",
      "primitives": [
        {
          "attributes": {
            "NORMAL": 4,
            "POSITION": 3
          },
          "indices": 5,
          "material": 1,
          "mode": 4
        }
      ]
    },
    {
      "name": "Object_2",
      "primitives": [
        {
          "attributes": {
            "NORMAL": 7,
            "POSITION": 6
          },
          "indices": 8,
          "material": 2,
          "mode": 4
        }
      ]
    },
    {
      "name": "Object_3",
      "primitives": [
        {
          "attributes": {
            "NORMAL": 10,
            "POSITION": 9
          },
          "indices": 11,
          "material": 3,
          "mode": 4
        }
      ]
    },
    {
      "name": "Object_4",
      "primitives": [
        {
          "attributes": {
            "NORMAL": 13,
            "POSITION": 12
          },
          "indices": 14,
          "material": 4,
          "mode": 4
        }
      ]
    },
    {
      "name": "Object_5",
      "primitives": [
        {
          "attributes": {
            "NORMAL": 16,
            "POSITION": 15
          },
          "indices": 17,
          "material": 5,
          "mode": 4
        }
      ]
    },
    {
      "name": "Object_6",
      "primitives": [
        {
          "attributes": {
            "NORMAL": 19,
            "POSITION": 18
          },
          "indices": 20,
          "material": 6,
          "mode": 4
        }
      ]
    },
    {
      "name": "Object_7",
      "primitives": [
        {
          "attributes": {
            "NORMAL": 22,
            "POSITION": 21
          },
          "indices": 23,
          "material": 7,
          "mode": 4
        }
      ]
    },
    {
      "name": "Object_8",
      "primitives": [
        {
          "attributes": {
            "NORMAL": 25,
            "POSITION": 24
          },
          "indices": 26,
          "material": 8,
          "mode": 4
        }
      ]
    },
    {
      "name": "Object_9",
      "primitives": [
        {
          "attributes": {
            "NORMAL": 28,
            "POSITION": 27
          },
          "indices": 29,
          "material": 9,
          "mode": 4
        }
      ]
    },
    {
      "name": "Object_10",
      "primitives": [
        {
          "attributes": {
            "NORMAL": 31,
            "POSITION": 30
          },
          "indices": 32,
          "material": 10,
          "mode": 4
        }
      ]
    }
  ],
  "nodes": [
    {
      "children": [
        1
      ],
      "matrix": [
        1.0,
        0.0,
        0.0,
        0.0,
        0.0,
        2.220446049250313e-16,
        -1.0,
        0.0,
        0.0,
        1.0,
        2.220446049250313e-16,
        0.0,
        0.0,
        0.0,
        0.0,
        1.0
      ],
      "name": "Sketchfab_model"
    },
    {
      "children": [
        2,
        3,
        4,
        5,
        6,
        7,
        8,
        9,
        10,
        11,
        12
      ],
      "name": "tinker.obj.cleaner.materialmerger.gles"
    },
    {
      "mesh": 0,
      "name": "Object_2"
    },
    {
      "mesh": 1,
      "name": "Object_3"
    },
    {
      "mesh": 2,
      "name": "Object_4"
    },
    {
      "mesh": 3,
      "name": "Object_5"
    },
    {
      "mesh": 4,
      "name": "Object_6"
    },
    {
      "mesh": 5,
      "name": "Object_7"
    },
    {
      "mesh": 6,
      "name": "Object_8"
    },
    {
      "mesh": 7,
      "name": "Object_9"
    },
    {
      "mesh": 8,
      "name": "Object_10"
    },
    {
      "mesh": 9,
      "name": "Object_11"
    },
    {
      "mesh": 10,
      "name": "Object_12"
    }
  ],
  "scene": 0,
  "scenes": [
    {
      "name": "Sketchfab_Scene",
      "nodes": [
        0
      ]
    }
  ]
}
